<svg xmlns="http://www.w3.org/2000/svg" width="48" height="48" viewBox="0 0 48 48">
  <metadata><?xpacket begin="﻿" id="W5M0MpCehiHzreSzNTczkc9d"?>
<x:xmpmeta xmlns:x="adobe:ns:meta/" x:xmptk="Adobe XMP Core 5.6-c138 79.159824, 2016/09/14-01:09:01        ">
   <rdf:RDF xmlns:rdf="http://www.w3.org/1999/02/22-rdf-syntax-ns#">
      <rdf:Description rdf:about=""/>
   </rdf:RDF>
</x:xmpmeta>
                                                                                                    
                                                                                                    
                                                                                                    
                                                                                                    
                                                                                                    
                                                                                                    
                                                                                                    
                                                                                                    
                                                                                                    
                                                                                                    
                                                                                                    
                                                                                                    
                                                                                                    
                                                                                                    
                                                                                                    
                                                                                                    
                                                                                                    
                                                                                                    
                                                                                                    
                                                                                                    
                           
<?xpacket end="w"?></metadata>
<defs>
    <style>
      .cls-1 {
        fill-rule: evenodd;
      }
    </style>
  </defs>
  <path id="_1" data-name="1" class="cls-1" d="M546.338,6963.79a0.945,0.945,0,1,1,0-1.89h2.625a0.945,0.945,0,1,1,0,1.89h-2.625Zm6.236-21.36a0.959,0.959,0,0,1-.275-0.67,0.942,0.942,0,0,1,.275-0.67,0.945,0.945,0,0,1,1.616.67,1,1,0,0,1-.274.67,0.992,0.992,0,0,1-.671.27A0.97,0.97,0,0,1,552.574,6942.43ZM575.75,6973a9.2,9.2,0,0,1-6.436-2.62H537.953a0.942,0.942,0,0,1-.945-0.94v-37.98a0.942,0.942,0,0,1,.945-0.94h6.927a0.888,0.888,0,0,1,.231.04v-2.19a3.386,3.386,0,0,1,6.772,0v2.16c0.017,0,.032-0.01.05-0.01h17.4c0.018,0,.033.01,0.051,0.01v-2.16a3.386,3.386,0,0,1,6.772,0v2.19a0.88,0.88,0,0,1,.23-0.04h6.927a0.942,0.942,0,0,1,.945.94v14.03a0.945,0.945,0,0,1-1.89,0v-2.79H558.256a0.945,0.945,0,1,1,0-1.89h24.112v-8.41h-5.982a0.891,0.891,0,0,1-.23-0.05v2.2a3.386,3.386,0,0,1-6.772,0v-2.16c-0.018,0-.033.01-0.051,0.01h-17.4c-0.018,0-.033-0.01-0.05-0.01v2.16a3.386,3.386,0,0,1-6.772,0v-2.2a0.9,0.9,0,0,1-.231.05H538.9v8.41h9.331a0.945,0.945,0,1,1,0,1.89H538.9v25.8h28.926a9.121,9.121,0,0,1-1.314-4.71H552.837a0.945,0.945,0,1,1,0-1.89h13.87a9.247,9.247,0,0,1,15.661-4.52v-7.46a0.945,0.945,0,0,1,1.89,0v10.28a9.106,9.106,0,0,1,.734,3.59A9.236,9.236,0,0,1,575.75,6973Zm-4.476-38.45a1.5,1.5,0,0,0,2.992,0v-6.18a1.5,1.5,0,0,0-2.992,0v6.18Zm-24.273,0a1.5,1.5,0,0,0,2.992,0v-6.18a1.5,1.5,0,0,0-2.992,0v6.18Zm28.749,21.92a7.32,7.32,0,1,0,7.352,7.32A7.341,7.341,0,0,0,575.75,6956.47Zm-0.6,10.81a0.961,0.961,0,0,1-1.336,0l-3.125-3.11a0.937,0.937,0,0,1,0-1.33,0.953,0.953,0,0,1,1.337-.01l2.457,2.45,5-4.97a0.942,0.942,0,1,1,1.335,1.33Z" transform="translate(-537 -6925)"/>
</svg>
