<svg xmlns="http://www.w3.org/2000/svg" width="61.625" height="36.82" viewBox="0 0 61.625 36.82">
  <metadata><?xpacket begin="﻿" id="W5M0MpCehiHzreSzNTczkc9d"?>
<x:xmpmeta xmlns:x="adobe:ns:meta/" x:xmptk="Adobe XMP Core 5.6-c138 79.159824, 2016/09/14-01:09:01        ">
   <rdf:RDF xmlns:rdf="http://www.w3.org/1999/02/22-rdf-syntax-ns#">
      <rdf:Description rdf:about=""/>
   </rdf:RDF>
</x:xmpmeta>
                                                                                                    
                                                                                                    
                                                                                                    
                                                                                                    
                                                                                                    
                                                                                                    
                                                                                                    
                                                                                                    
                                                                                                    
                                                                                                    
                                                                                                    
                                                                                                    
                                                                                                    
                                                                                                    
                                                                                                    
                                                                                                    
                                                                                                    
                                                                                                    
                                                                                                    
                                                                                                    
                           
<?xpacket end="w"?></metadata>
<defs>
    <style>
      .cls-1 {
        fill-rule: evenodd;
      }
    </style>
  </defs>
  <path id="_2" data-name="2" class="cls-1" d="M872.911,6944.83a0.971,0.971,0,0,1,.746.35l4.86,5.9a0.929,0.929,0,0,1,.124,1,0.966,0.966,0,0,1-.87.54h-9.342a0.952,0.952,0,0,1-.962-0.95v-5.89a0.959,0.959,0,0,1,.962-0.95h4.482Zm-3.519,5.9h6.355l-3.294-4h-3.061v4Zm-11.164-13.92a0.95,0.95,0,1,1,0,1.9h-6.112a0.95,0.95,0,1,1,0-1.9h6.112Zm-10.4,0a0.95,0.95,0,1,1,0,1.9H829.959a0.95,0.95,0,1,1,0-1.9h17.873Zm-23.486,14.96a0.956,0.956,0,0,1,0,1.35,1,1,0,0,1-1.367,0,0.956,0.956,0,0,1,0-1.35A1.021,1.021,0,0,1,824.346,6951.77Zm58.991,11.84h-5.8a5.8,5.8,0,0,1-11.431,0H840.894a5.806,5.806,0,0,1-11.433,0h-5.8a0.952,0.952,0,0,1-.962-0.95v-6.5a0.963,0.963,0,0,1,1.925,0v5.56h4.835a5.806,5.806,0,0,1,11.433,0h25.213a5.8,5.8,0,0,1,11.431,0h4.837v-9.71l-7.147-8.93h-10.7a0.953,0.953,0,0,1-.963-0.95v-8.63H824.626v15.23a0.963,0.963,0,0,1-1.925,0v-16.18a0.952,0.952,0,0,1,.962-0.95h40.861a0.952,0.952,0,0,1,.962.95v8.63h10.208a0.964,0.964,0,0,1,.756.36l7.643,9.55a0.911,0.911,0,0,1,.207.58v10.99A0.953,0.953,0,0,1,883.337,6963.61Zm-48.159-4.78a3.835,3.835,0,1,0,3.888,3.83A3.866,3.866,0,0,0,835.178,6958.83Zm36.644,0a3.835,3.835,0,1,0,3.889,3.83A3.864,3.864,0,0,0,871.822,6958.83Z" transform="translate(-822.688 -6931.59)"/>
</svg>
