<svg xmlns="http://www.w3.org/2000/svg" width="47" height="47" viewBox="0 0 47 47">
  <metadata><?xpacket begin="﻿" id="W5M0MpCehiHzreSzNTczkc9d"?>
<x:xmpmeta xmlns:x="adobe:ns:meta/" x:xmptk="Adobe XMP Core 5.6-c138 79.159824, 2016/09/14-01:09:01        ">
   <rdf:RDF xmlns:rdf="http://www.w3.org/1999/02/22-rdf-syntax-ns#">
      <rdf:Description rdf:about=""/>
   </rdf:RDF>
</x:xmpmeta>
                                                                                                    
                                                                                                    
                                                                                                    
                                                                                                    
                                                                                                    
                                                                                                    
                                                                                                    
                                                                                                    
                                                                                                    
                                                                                                    
                                                                                                    
                                                                                                    
                                                                                                    
                                                                                                    
                                                                                                    
                                                                                                    
                                                                                                    
                                                                                                    
                                                                                                    
                                                                                                    
                           
<?xpacket end="w"?></metadata>
<defs>
    <style>
      .cls-1 {
        fill-rule: evenodd;
      }
    </style>
  </defs>
  <path id="_3" data-name="3" class="cls-1" d="M1146.5,6973a23.5,23.5,0,1,1,16.41-40.32,0.9,0.9,0,0,1-1.26,1.29,21.448,21.448,0,0,0-9.52-5.38c3.8,3.73,6.38,11.17,6.55,20.01h9.47a21.44,21.44,0,0,0-1.56-7.3,0.9,0.9,0,1,1,1.67-.69A23.513,23.513,0,0,1,1146.5,6973Zm-10.37-24.4h9.47v-20.69C1140.51,6928.87,1136.35,6937.87,1136.13,6948.6Zm9.47,22.49V6950.4h-9.47C1136.35,6961.13,1140.51,6970.13,1145.6,6971.09Zm1.8,0c5.09-.96,9.25-9.96,9.47-20.69h-9.47v20.69Zm-6.55-.69c-3.79-3.74-6.36-11.17-6.53-20h-9.47A21.7,21.7,0,0,0,1140.85,6970.4Zm-16-21.8h9.47c0.17-8.83,2.74-16.26,6.53-20A21.7,21.7,0,0,0,1124.85,6948.6Zm22.55-20.69v20.69h9.47C1156.65,6937.87,1152.49,6928.87,1147.4,6927.91Zm11.28,22.49c-0.17,8.83-2.74,16.26-6.53,20a21.7,21.7,0,0,0,16-20h-9.47Zm6.57-12.77a0.927,0.927,0,0,1-.64-0.27,0.905,0.905,0,1,1,1.28-1.28A0.91,0.91,0,0,1,1165.25,6937.63Z" transform="translate(-1123 -6926)"/>
</svg>
