<svg xmlns="http://www.w3.org/2000/svg" width="50" height="47" viewBox="0 0 50 47">
  <metadata><?xpacket begin="﻿" id="W5M0MpCehiHzreSzNTczkc9d"?>
<x:xmpmeta xmlns:x="adobe:ns:meta/" x:xmptk="Adobe XMP Core 5.6-c138 79.159824, 2016/09/14-01:09:01        ">
   <rdf:RDF xmlns:rdf="http://www.w3.org/1999/02/22-rdf-syntax-ns#">
      <rdf:Description rdf:about=""/>
   </rdf:RDF>
</x:xmpmeta>
                                                                                                    
                                                                                                    
                                                                                                    
                                                                                                    
                                                                                                    
                                                                                                    
                                                                                                    
                                                                                                    
                                                                                                    
                                                                                                    
                                                                                                    
                                                                                                    
                                                                                                    
                                                                                                    
                                                                                                    
                                                                                                    
                                                                                                    
                                                                                                    
                                                                                                    
                                                                                                    
                           
<?xpacket end="w"?></metadata>
<defs>
    <style>
      .cls-1 {
        fill-rule: evenodd;
      }
    </style>
  </defs>
  <path id="_4" data-name="4" class="cls-1" d="M1464.1,6967.57h-2.31v2.29a0.905,0.905,0,0,1-1.81,0v-2.29h-2.3a0.9,0.9,0,1,1,0-1.8h2.3v-2.3a0.905,0.905,0,0,1,1.81,0v2.3h2.31A0.9,0.9,0,1,1,1464.1,6967.57Zm-2.46-10.54a0.769,0.769,0,0,1,.29.19,0.853,0.853,0,0,1,.19.3,0.842,0.842,0,0,1,.07.35,0.927,0.927,0,0,1-.26.62,0.942,0.942,0,0,1-.29.2,1.03,1.03,0,0,1-.35.06,0.9,0.9,0,0,1-.64-0.26,0.972,0.972,0,0,1-.19-0.29,0.817,0.817,0,0,1-.07-0.33A0.894,0.894,0,0,1,1461.64,6957.03Zm2.96-10.95c-0.01.01-.01,0.03-0.02,0.04a0.654,0.654,0,0,1-.17.26l-23.92,25.34a0.133,0.133,0,0,0-.05.03,1.429,1.429,0,0,1-.2.14c-0.03.01-.05,0.03-0.08,0.04a0.824,0.824,0,0,1-.31.07h-0.02a0.928,0.928,0,0,1-.33-0.07c-0.03-.01-0.05-0.03-0.08-0.04a0.9,0.9,0,0,1-.2-0.14c-0.01-.01-0.04-0.02-0.05-0.03l-23.93-25.34a0.782,0.782,0,0,1-.17-0.26,0.06,0.06,0,0,0-.01-0.04,0.918,0.918,0,0,1-.05-0.28c0-.01-0.01-0.02-0.01-0.03,0-.03.01-0.05,0.01-0.08a0.8,0.8,0,0,1,.05-0.21,0.5,0.5,0,0,1,.05-0.13c0.02-.02.02-0.06,0.04-0.08l7.09-10.52a0.374,0.374,0,0,0,.07-0.06,0.658,0.658,0,0,1,.14-0.15,0.251,0.251,0,0,1,.07-0.04,0.754,0.754,0,0,1,.13-0.06,0.839,0.839,0,0,1,.26-0.07c0.03,0,.06-0.02.08-0.02h33.67c0.03,0,.06.02,0.09,0.02a0.828,0.828,0,0,1,.27.07c0.05,0.02.09,0.05,0.13,0.07a1.054,1.054,0,0,1,.11.07,0.481,0.481,0,0,1,.09.11c0.02,0.03.05,0.04,0.06,0.06l7.09,10.52a0.3,0.3,0,0,1,.04.08,0.672,0.672,0,0,1,.06.12,0.933,0.933,0,0,1,.04.22,0.235,0.235,0,0,1,.02.08c0,0.01-.01.02-0.01,0.03A0.918,0.918,0,0,1,1464.6,6946.08Zm-2.94.59h-13.57l-6.31,21.05Zm-21.9,21.5,6.44-21.5h-13.94Zm-2.17-.76-7.24-20.74h-12.36Zm-19.99-22.54h11.57l-6.13-8.07Zm7.21-8.72,6.19,8.14,6.36-8.14h-12.55Zm8.03,8.72h12.73l-6.37-8.15Zm8.21-8.72,6.41,8.21,7.21-8.21h-13.62Zm15.52,0.58-7.16,8.14h12.65Zm-26.45-7.57a0.926,0.926,0,0,1-.3.2,0.885,0.885,0,0,1-.69,0,0.926,0.926,0,0,1-.3-0.2,1.065,1.065,0,0,1-.19-0.28,0.834,0.834,0,0,1-.06-0.35,0.862,0.862,0,0,1,.06-0.35,1.452,1.452,0,0,1,.19-0.29,1.023,1.023,0,0,1,.3-0.19,0.929,0.929,0,0,1,.99.19,1.118,1.118,0,0,1,.19.29,0.875,0.875,0,0,1,.07.35,0.842,0.842,0,0,1-.07.35A1.065,1.065,0,0,1,1430.12,6929.16Zm-7.8.83h-2.31v2.3a0.9,0.9,0,1,1-1.8,0v-2.3h-2.31a0.9,0.9,0,0,1,0-1.8h2.31v-2.29a0.9,0.9,0,0,1,1.8,0v2.29h2.31A0.9,0.9,0,0,1,1422.32,6929.99Zm28.74,39.59a0.915,0.915,0,0,1,.69,0,0.877,0.877,0,0,1,.3.2,1.065,1.065,0,0,1,.19.28,0.875,0.875,0,0,1,.07.35,0.9,0.9,0,0,1-.26.64,1.426,1.426,0,0,1-.3.2,0.974,0.974,0,0,1-.34.06,1.03,1.03,0,0,1-.35-0.06,1,1,0,0,1-.29-0.2,0.769,0.769,0,0,1-.19-0.29,0.842,0.842,0,0,1-.07-0.35,0.86,0.86,0,0,1,.26-0.63A0.837,0.837,0,0,1,1451.06,6969.58Z" transform="translate(-1415 -6925)"/>
</svg>
