<svg xmlns="http://www.w3.org/2000/svg" width="17.07" height="16.188" viewBox="0 0 17.07 16.188">
  <metadata><?xpacket begin="﻿" id="W5M0MpCehiHzreSzNTczkc9d"?>
<x:xmpmeta xmlns:x="adobe:ns:meta/" x:xmptk="Adobe XMP Core 5.6-c138 79.159824, 2016/09/14-01:09:01        ">
   <rdf:RDF xmlns:rdf="http://www.w3.org/1999/02/22-rdf-syntax-ns#">
      <rdf:Description rdf:about=""/>
   </rdf:RDF>
</x:xmpmeta>
                                                                                                    
                                                                                                    
                                                                                                    
                                                                                                    
                                                                                                    
                                                                                                    
                                                                                                    
                                                                                                    
                                                                                                    
                                                                                                    
                                                                                                    
                                                                                                    
                                                                                                    
                                                                                                    
                                                                                                    
                                                                                                    
                                                                                                    
                                                                                                    
                                                                                                    
                                                                                                    
                           
<?xpacket end="w"?></metadata>
<defs>
    <style>
      .cls-1 {
        fill: #292929;
        fill-rule: evenodd;
      }
    </style>
  </defs>
  <path id="Cart_icon" class="cls-1" d="M1539.03,61.027a0.892,0.892,0,0,1-.88.773H1528.1l0.14,0.9h9.02a0.9,0.9,0,0,1,0,1.8h-9.77a0.828,0.828,0,0,1-.32-0.067,0.5,0.5,0,0,1-.1-0.058,1.3,1.3,0,0,1-.18-0.117c-0.03-.031-0.05-0.066-0.08-0.1a0.974,0.974,0,0,1-.11-0.162,0.622,0.622,0,0,1-.04-0.136,0.242,0.242,0,0,1-.04-0.112L1524.96,53.7h-1.24a0.9,0.9,0,0,1,0-1.8h2a0.888,0.888,0,0,1,.87.752l0.17,1.047h12.28a0.88,0.88,0,0,1,.67.311,0.926,0.926,0,0,1,.21.717ZM1534.6,60h2.78l0.25-1.8h-3.03V60Zm-4.44-4.5h-3.1l0.3,1.828a0.445,0.445,0,0,1,.13-0.028h2.67V55.5Zm0,2.7h-2.66l0.3,1.8h2.36V58.2Zm3.55-2.7h-2.67v1.8h2.67V55.5Zm0,2.7h-2.67V60h2.67V58.2Zm0.89-2.7v1.8h3.16l0.25-1.8h-3.41Zm-5.78,9.9a1.35,1.35,0,1,1-1.33,1.35A1.345,1.345,0,0,1,1528.82,65.4Zm8,0a1.35,1.35,0,1,1-1.33,1.35A1.343,1.343,0,0,1,1536.82,65.4Z" transform="translate(-1522.84 -51.906)"/>
</svg>
