<svg xmlns="http://www.w3.org/2000/svg" xmlns:xlink="http://www.w3.org/1999/xlink" width="48" height="48" viewBox="0 0 48 48"><defs><path id="apyea" d="M235.89 14380.99a22.5 22.5 0 0 1-22.58-22.53 22.5 22.5 0 0 1 22.58-22.53 22.5 22.5 0 0 1 22.58 22.53 22.5 22.5 0 0 1-22.58 22.53zm0-40.37a17.85 17.85 0 1 0 0 35.67 17.85 17.85 0 1 0 0-35.67zm6.59 14.08l-.95 4.7h-3.76v13.14h-5.64v-13.14h-4.7v-4.7h4.7v-3.75c0-4.32 2.72-6.58 6.58-6.58h3.77v4.7h-1.89c-2.07 0-2.82.47-2.82 1.88v3.75z"/></defs><g><g transform="translate(-212 -14334)"><use fill="#fff" xlink:href="#apyea"/></g></g></svg>