<svg xmlns="http://www.w3.org/2000/svg" width="28.82" height="28.82" viewBox="0 0 28.82 28.82">
  <metadata><?xpacket begin="﻿" id="W5M0MpCehiHzreSzNTczkc9d"?>
<x:xmpmeta xmlns:x="adobe:ns:meta/" x:xmptk="Adobe XMP Core 5.6-c138 79.159824, 2016/09/14-01:09:01        ">
   <rdf:RDF xmlns:rdf="http://www.w3.org/1999/02/22-rdf-syntax-ns#">
      <rdf:Description rdf:about=""/>
   </rdf:RDF>
</x:xmpmeta>
                                                                                                    
                                                                                                    
                                                                                                    
                                                                                                    
                                                                                                    
                                                                                                    
                                                                                                    
                                                                                                    
                                                                                                    
                                                                                                    
                                                                                                    
                                                                                                    
                                                                                                    
                                                                                                    
                                                                                                    
                                                                                                    
                                                                                                    
                                                                                                    
                                                                                                    
                                                                                                    
                           
<?xpacket end="w"?></metadata>
<defs>
    <style>
      .cls-1 {
        fill: #fff;
        fill-rule: evenodd;
      }
    </style>
  </defs>
  <path id="insta" class="cls-1" d="M1461,7509.4a14.4,14.4,0,1,1,14.4-14.4A14.365,14.365,0,0,1,1461,7509.4Zm0-25.8a11.4,11.4,0,1,0,11.4,11.4A11.395,11.395,0,0,0,1461,7483.6Zm5.7,18.84h-11.4a1.741,1.741,0,0,1-1.74-1.74v-11.4a1.741,1.741,0,0,1,1.74-1.74h11.16a2.175,2.175,0,0,1,1.98,1.74v11.4A1.824,1.824,0,0,1,1466.7,7502.44Zm-5.7-10.14a2.7,2.7,0,1,0,2.7,2.7A2.689,2.689,0,0,0,1461,7492.3Zm5.46-2.22a0.44,0.44,0,0,0-.48-0.48h-1.5a0.473,0.473,0,0,0-.48.48v1.5a0.516,0.516,0,0,0,.48.48h1.5a0.516,0.516,0,0,0,.48-0.48v-1.5Zm-0.06,9.36v-5.7h-1.14a4.568,4.568,0,0,1,.18,1.26,4.44,4.44,0,0,1-8.88,0,4.264,4.264,0,0,1,.18-1.26h-1.14v5.7a0.948,0.948,0,0,0,.96.96h8.94a0.948,0.948,0,0,0,.96-0.96h-0.06Z" transform="translate(-1446.59 -7480.59)"/>
</svg>
