<svg xmlns="http://www.w3.org/2000/svg" xmlns:xlink="http://www.w3.org/1999/xlink" width="48" height="48" viewBox="0 0 48 48"><defs><path id="395ja" d="M355.07 14380.99a22.5 22.5 0 0 1-22.58-22.53 22.5 22.5 0 0 1 22.58-22.53 22.5 22.5 0 0 1 22.58 22.53 22.5 22.5 0 0 1-22.58 22.53zm0-40.37a17.85 17.85 0 1 0 0 35.67 17.85 17.85 0 1 0 0-35.67zm8.94 29.48h-17.88a2.73 2.73 0 0 1-2.73-2.72v-17.84c0-1.5 1.23-2.72 2.73-2.72h17.5c1.41.09 3.01 1.31 3.1 2.72v17.84c0 1.5-1.31 2.62-2.72 2.72zm-8.94-15.87a4.21 4.21 0 0 0-4.23 4.23 4.21 4.21 0 0 0 4.23 4.22 4.21 4.21 0 0 0 4.23-4.22 4.21 4.21 0 0 0-4.23-4.23zm8.56-3.47c0-.47-.37-.85-.75-.75h-2.35a.74.74 0 0 0-.76.75v2.35c0 .37.38.75.76.75h2.35c.38 0 .75-.38.75-.75zm-.1 14.64v-8.91h-1.78a6.94 6.94 0 0 1-6.68 8.92 6.94 6.94 0 0 1-6.68-8.92h-1.79v8.91c0 .85.66 1.5 1.5 1.5h14.03c.84 0 1.5-.65 1.5-1.5z"/></defs><g><g transform="translate(-331 -14334)"><use fill="#fff" xlink:href="#395ja"/></g></g></svg>