<svg xmlns="http://www.w3.org/2000/svg" width="28.82" height="28.82" viewBox="0 0 28.82 28.82">
  <metadata><?xpacket begin="﻿" id="W5M0MpCehiHzreSzNTczkc9d"?>
<x:xmpmeta xmlns:x="adobe:ns:meta/" x:xmptk="Adobe XMP Core 5.6-c138 79.159824, 2016/09/14-01:09:01        ">
   <rdf:RDF xmlns:rdf="http://www.w3.org/1999/02/22-rdf-syntax-ns#">
      <rdf:Description rdf:about=""/>
   </rdf:RDF>
</x:xmpmeta>
                                                                                                    
                                                                                                    
                                                                                                    
                                                                                                    
                                                                                                    
                                                                                                    
                                                                                                    
                                                                                                    
                                                                                                    
                                                                                                    
                                                                                                    
                                                                                                    
                                                                                                    
                                                                                                    
                                                                                                    
                                                                                                    
                                                                                                    
                                                                                                    
                                                                                                    
                                                                                                    
                           
<?xpacket end="w"?></metadata>
<defs>
    <style>
      .cls-1 {
        fill: #fff;
        fill-rule: evenodd;
      }
    </style>
  </defs>
  <path id="ok" class="cls-1" d="M1423,7509.4a14.4,14.4,0,1,1,14.4-14.4A14.365,14.365,0,0,1,1423,7509.4Zm0-25.8a11.4,11.4,0,1,0,11.4,11.4A11.395,11.395,0,0,0,1423,7483.6Zm4.8,13.62c-0.72.42-3,1.38-3,1.38l2.52,3.24a2.3,2.3,0,0,1,.48.96,1.2,1.2,0,0,1-1.2,1.2,1.143,1.143,0,0,1-.9-0.42l-2.7-3.18-2.76,3.18a1.143,1.143,0,0,1-.9.42,1.2,1.2,0,0,1-1.2-1.2,1.944,1.944,0,0,1,.48-0.96l2.58-3.24s-2.28-.96-3-1.38a1.091,1.091,0,0,1-.6-1.02,1.2,1.2,0,0,1,1.2-1.2c0.6,0,1.8,1.2,4.2,1.2s3.6-1.2,4.2-1.2a1.2,1.2,0,0,1,1.2,1.2A1.168,1.168,0,0,1,1427.8,7497.22Zm-4.8-2.82a4.2,4.2,0,1,1,4.2-4.2A4.174,4.174,0,0,1,1423,7494.4Zm0-6.3a2.1,2.1,0,1,0,2.1,2.1A2.126,2.126,0,0,0,1423,7488.1Z" transform="translate(-1408.59 -7480.59)"/>
</svg>
