<svg xmlns="http://www.w3.org/2000/svg" xmlns:xlink="http://www.w3.org/1999/xlink" width="49" height="48" viewBox="0 0 49 48"><defs><path id="yfv2a" d="M295.48 14380.99a22.5 22.5 0 0 1-22.58-22.53 22.5 22.5 0 0 1 22.58-22.53 22.5 22.5 0 0 1 22.58 22.53 22.5 22.5 0 0 1-22.58 22.53zm0-40.37a17.85 17.85 0 1 0 0 35.67 17.85 17.85 0 1 0 0-35.67zm7.53 21.31a68.5 68.5 0 0 1-4.7 2.16l3.94 5.07s.76.94.76 1.5c0 1.03-.85 1.88-1.89 1.88-.94 0-1.4-.66-1.4-.66l-4.24-4.97-4.33 4.97s-.47.66-1.41.66a1.89 1.89 0 0 1-1.88-1.88c0-.66.75-1.5.75-1.5l4.05-5.07s-3.58-1.5-4.7-2.16a1.7 1.7 0 0 1-.95-1.6c0-1.03.85-1.87 1.88-1.87.94 0 2.83 1.87 6.59 1.87s5.64-1.87 6.59-1.87c1.03 0 1.88.84 1.88 1.87 0 .94-.57 1.32-.94 1.6zm-7.53-4.41a6.54 6.54 0 0 1-6.59-6.57 6.54 6.54 0 0 1 6.59-6.58c3.67 0 6.59 2.91 6.59 6.58a6.54 6.54 0 0 1-6.6 6.57zm0-9.86c-1.79 0-3.3 1.5-3.3 3.29 0 1.78 1.51 3.28 3.3 3.28 1.79 0 3.3-1.5 3.3-3.28 0-1.79-1.51-3.29-3.3-3.29z"/></defs><g><g transform="translate(-271 -14334)"><use fill="#fff" xlink:href="#yfv2a"/></g></g></svg>