<svg xmlns="http://www.w3.org/2000/svg" width="28.82" height="28.82" viewBox="0 0 28.82 28.82">
  <metadata><?xpacket begin="﻿" id="W5M0MpCehiHzreSzNTczkc9d"?>
<x:xmpmeta xmlns:x="adobe:ns:meta/" x:xmptk="Adobe XMP Core 5.6-c138 79.159824, 2016/09/14-01:09:01        ">
   <rdf:RDF xmlns:rdf="http://www.w3.org/1999/02/22-rdf-syntax-ns#">
      <rdf:Description rdf:about=""/>
   </rdf:RDF>
</x:xmpmeta>
                                                                                                    
                                                                                                    
                                                                                                    
                                                                                                    
                                                                                                    
                                                                                                    
                                                                                                    
                                                                                                    
                                                                                                    
                                                                                                    
                                                                                                    
                                                                                                    
                                                                                                    
                                                                                                    
                                                                                                    
                                                                                                    
                                                                                                    
                                                                                                    
                                                                                                    
                                                                                                    
                           
<?xpacket end="w"?></metadata>
<defs>
    <style>
      .cls-1 {
        fill: #fff;
        fill-rule: evenodd;
      }
    </style>
  </defs>
  <path id="vk" class="cls-1" d="M1499,7509.4a14.4,14.4,0,1,1,14.4-14.4A14.365,14.365,0,0,1,1499,7509.4Zm0-25.8a11.4,11.4,0,1,0,11.4,11.4A11.395,11.395,0,0,0,1499,7483.6Zm7.2,10.2c-1.8,2.4-1.2,1.8,0,3,1.38,1.38,1.8,2.04,1.8,2.4a1.229,1.229,0,0,1-1.2,1.2H1505a1.2,1.2,0,0,1-1.2-.6c-0.78-.78-1.8-1.8-2.4-1.8a1.29,1.29,0,0,0-1.2,1.2c0,0.36,0,1.2-.6,1.2H1499c-1.2-.06-2.58-0.18-4.68-2.34a19.5,19.5,0,0,1-4.32-7.26c-0.06-.24,0-0.6.6-0.6h1.8a0.982,0.982,0,0,1,1.2.6c1.2,1.8,2.4,4.2,3,4.2s0.6-2.4.6-2.4v-1.2c0-.84-1.02-0.6-1.2-0.6a2.829,2.829,0,0,1,.6-0.6,3.514,3.514,0,0,1,1.8-.6h1.8c0.9,0.24.6,1.62,0.6,3.6,0,0.66.06,1.8,0.6,1.8s0.6-.6,1.2-1.8a19.274,19.274,0,0,1,1.8-3c0.42-.54,3.48.06,3.6,0.42S1507.28,7492.3,1506.2,7493.8Z" transform="translate(-1484.59 -7480.59)"/>
</svg>
