<svg xmlns="http://www.w3.org/2000/svg" xmlns:xlink="http://www.w3.org/1999/xlink" width="48" height="48" viewBox="0 0 48 48"><defs><path id="mkq9a" d="M414.66 14380.99a22.5 22.5 0 0 1-22.58-22.53 22.5 22.5 0 0 1 22.58-22.53 22.5 22.5 0 0 1 22.58 22.53 22.5 22.5 0 0 1-22.58 22.53zm0-40.37a17.85 17.85 0 1 0 0 35.67 17.85 17.85 0 1 0 0-35.67zm11.3 15.96c-2.83 3.75-1.9 2.82 0 4.7 2.15 2.15 2.81 3.18 2.81 3.75 0 1.78-1.88 1.88-1.88 1.88h-2.82c-.94 0-.94 0-1.88-.94-1.23-1.22-2.83-2.82-3.77-2.82s-1.88.94-1.88 1.88c0 .56 0 1.88-.94 1.88h-.94c-1.88-.1-4.05-.29-7.34-3.67-3.57-3.75-4.9-6.66-6.77-11.35-.1-.38 0-.94.94-.94h2.82c.94 0 1.13-.2 1.88.94 1.88 2.81 3.77 6.57 4.7 6.57.95 0 .95-3.76.95-3.76v-1.88c0-1.3-1.6-.93-1.88-.93-.2 0 .94-.94.94-.94s1.31-.94 2.82-.94h2.82c1.41.37.94 2.53.94 5.63 0 1.03.1 2.82.94 2.82.85 0 .94-.94 1.89-2.82.56-1.22.94-1.88 2.82-4.7.66-.84 5.46.1 5.64.66.2.57-1.13 2.63-2.82 4.98z"/></defs><g><g transform="translate(-391 -14334)"><use fill="#fff" xlink:href="#mkq9a"/></g></g></svg>